<svg id="Layer_1" data-name="Layer 1" xmlns="http://www.w3.org/2000/svg" viewBox="0 0 200 200"><defs><style>.cls-1{fill:#fff;}.cls-2{fill:#231f20;}</style></defs><circle class="cls-1" cx="100" cy="100" r="93.85"/><path class="cls-2" d="M56.05,125.46l-11.32-19H35.86v19H26.92v-51h22.4C59.41,74.46,66,81,66,90.44c0,9.1-6,14-12.08,15l12.46,20Zm.76-35c0-4.89-3.67-8.1-8.71-8.1H35.86V98.55H48.1C53.14,98.55,56.81,95.33,56.81,90.44Z"/><path class="cls-2" d="M114.41,125.46V87.61L98.73,125.46H94.91L79.31,87.61v37.85H70.37v-51H83L96.82,108l13.92-33.57h12.61v51Z"/><path class="cls-2" d="M125.83,100c0-15.68,11.7-26.38,26.76-26.38,10.32,0,16.67,5.35,20.49,11.47L165.43,89a15.15,15.15,0,0,0-12.84-7.42C142.5,81.57,135,89.3,135,100s7.49,18.42,17.58,18.42A15,15,0,0,0,165.43,111l7.65,3.9c-3.9,6.11-10.17,11.47-20.49,11.47C137.53,126.38,125.83,115.67,125.83,100Z"/></svg>