<svg id="Layer_1" data-name="Layer 1" xmlns="http://www.w3.org/2000/svg" viewBox="0 0 381.15 57.83"><defs><style>.cls-1{fill:#1d1d1b;}.cls-2{fill:#9d9d9c;}</style></defs><path class="cls-1" d="M18,8.25q0,5.85-4.86,7.37L19,24.21H14.17L8.79,16.26h-5v8H0V.58H8.37c3.44,0,5.89.6,7.38,1.82S18,5.57,18,8.25ZM12.91,11.6a4.35,4.35,0,0,0,1.16-3.37,3.71,3.71,0,0,0-1.19-3.18,7.65,7.65,0,0,0-4.25-.86H3.8v8.45H8.53C10.68,12.64,12.14,12.3,12.91,11.6Z"/><path class="cls-2" d="M42.28,21a11.33,11.33,0,0,1-8.44,3.49A11.29,11.29,0,0,1,25.41,21,12,12,0,0,1,22,12.22,12,12,0,0,1,25.41,3.5,11.3,11.3,0,0,1,33.84,0a11.34,11.34,0,0,1,8.44,3.5,12,12,0,0,1,3.41,8.72A12,12,0,0,1,42.28,21ZM39.49,6.15a7.63,7.63,0,0,0-11.3,0,8.66,8.66,0,0,0-2.3,6.07,8.66,8.66,0,0,0,2.3,6.07,7.63,7.63,0,0,0,11.3,0,8.63,8.63,0,0,0,2.31-6.07A8.63,8.63,0,0,0,39.49,6.15Z"/><path class="cls-2" d="M67.36.58h3.8V24.21H67L54.29,7V24.21h-3.8V.58h3.8L67.36,18.22Z"/><path class="cls-1" d="M90,24.21h-3.8V.58h5.93L99,15.42,105.74.58h5.9V24.21h-3.8V5.75L100,22.15H97.85L90,5.75Z"/><path class="cls-1" d="M128.15,20.59a7.71,7.71,0,0,0,3.39-.69,11.58,11.58,0,0,0,3-2.22L137,20.32a11.07,11.07,0,0,1-8.68,4.16A11.32,11.32,0,0,1,119.8,21a12,12,0,0,1-3.37-8.72,12.1,12.1,0,0,1,3.43-8.79A11.59,11.59,0,0,1,128.52,0a11.09,11.09,0,0,1,8.75,4.06l-2.42,2.77a10.67,10.67,0,0,0-3-2.27,8.34,8.34,0,0,0-3.37-.64,7.78,7.78,0,0,0-5.73,2.32,8,8,0,0,0-2.32,5.91,8.36,8.36,0,0,0,2.31,6A7.24,7.24,0,0,0,128.15,20.59Z"/><path class="cls-2" d="M157.39.58V4.33h-12v6.25h10.79v3.55H145.38v6.33h12.4v3.75h-16.2V.58Z"/><path class="cls-2" d="M162.64,24.21V.58h3.8V20.42h10.27v3.79Z"/><path class="cls-2" d="M198.83,8.25q0,5.85-4.86,7.37l5.89,8.59H195l-5.37-7.95h-5v8h-3.79V.58h8.37c3.43,0,5.89.6,7.37,1.82S198.83,5.57,198.83,8.25Zm-5.05,3.35a4.35,4.35,0,0,0,1.16-3.37,3.71,3.71,0,0,0-1.19-3.18,7.71,7.71,0,0,0-4.26-.86h-4.83v8.45h4.74C191.54,12.64,193,12.3,193.78,11.6Z"/><path class="cls-2" d="M223.14,21a11.94,11.94,0,0,1-16.87,0,12,12,0,0,1-3.41-8.73,12,12,0,0,1,3.41-8.72,11.91,11.91,0,0,1,16.87,0,12,12,0,0,1,3.42,8.72A12,12,0,0,1,223.14,21Zm-2.78-14.8a7.63,7.63,0,0,0-11.3,0,8.63,8.63,0,0,0-2.31,6.07,8.63,8.63,0,0,0,2.31,6.07,7.63,7.63,0,0,0,11.3,0,8.66,8.66,0,0,0,2.3-6.07A8.66,8.66,0,0,0,220.36,6.15Z"/><path class="cls-2" d="M239.47,24.21h-3.86V14.88L227.23.58h4.16l6.15,10.75L243.69.58h4.15l-8.37,14.3Z"/><path class="cls-2" d="M276.56,3.67q3.26,3.09,3.25,8.6A11.94,11.94,0,0,1,276.66,21c-2.11,2.14-5.32,3.21-9.66,3.21h-7.47V.58h7.73Q273.31.58,276.56,3.67Zm-.58,8.7q0-8.11-8.85-8.11h-3.8v16.2h4.22a8.82,8.82,0,0,0,6.26-2.05C275.26,17.05,276,15,276,12.37Z"/><path class="cls-2" d="M300.52.58V4.33h-12v6.25H299.3v3.55H288.51v6.33h12.4v3.75h-16.2V.58Z"/><path class="cls-2" d="M312.58,3.69a4.74,4.74,0,0,0-2.72.71,2.4,2.4,0,0,0-1.07,2.14,2.54,2.54,0,0,0,1.07,2.2,15.54,15.54,0,0,0,4.52,1.64,12.22,12.22,0,0,1,5.22,2.47,6,6,0,0,1,1.75,4.68,6.33,6.33,0,0,1-2.22,5,8.55,8.55,0,0,1-5.83,1.93,13.33,13.33,0,0,1-9.37-3.82l2.39-3a10.46,10.46,0,0,0,7.08,3.11,4.68,4.68,0,0,0,2.91-.83,2.63,2.63,0,0,0,1.08-2.2,2.53,2.53,0,0,0-1-2.13,10.41,10.41,0,0,0-3.5-1.38,30.19,30.19,0,0,1-3.76-1.15,8.6,8.6,0,0,1-2.29-1.37,5.85,5.85,0,0,1-2-4.87,6,6,0,0,1,2.28-5A8.78,8.78,0,0,1,312.72,0,13.08,13.08,0,0,1,317,.74a11.22,11.22,0,0,1,3.67,2.1l-2,3a7.71,7.71,0,0,0-2.71-1.56A10.11,10.11,0,0,0,312.58,3.69Z"/><path class="cls-2" d="M326.05.58h3.8V24.21h-3.8Z"/><path class="cls-2" d="M351.69,12.71h3.79v8.08q-3.18,3.69-9.11,3.69A11.18,11.18,0,0,1,338,21a12,12,0,0,1-3.37-8.72,12.06,12.06,0,0,1,3.43-8.79A11.14,11.14,0,0,1,346.37,0a11.45,11.45,0,0,1,8.09,3l-2,3a7.85,7.85,0,0,0-2.66-1.64,9.47,9.47,0,0,0-3.11-.46,7.78,7.78,0,0,0-5.73,2.32,8.19,8.19,0,0,0-2.32,6.08,8.23,8.23,0,0,0,2.26,6.06,7.38,7.38,0,0,0,5.45,2.28,9.4,9.4,0,0,0,5.37-1.46Z"/><path class="cls-2" d="M377.35.58h3.8V24.21H377L364.28,7V24.21h-3.81V.58h3.81l13.07,17.64Z"/><path class="cls-1" d="M5.65,53.22a5.64,5.64,0,0,1-4.11-1.71A6,6,0,0,1-.18,47.05a5.94,5.94,0,0,1,1.8-4.49A6,6,0,0,1,6,40.83a5.8,5.8,0,0,1,4.37,1.87L9,44.53a4.48,4.48,0,0,0-3-1.35,3.68,3.68,0,0,0-2.62,1,3.57,3.57,0,0,0-1.11,2.71,4,4,0,0,0,1.1,2.82A3.57,3.57,0,0,0,6,50.91a4.14,4.14,0,0,0,3-1.53L10.48,51A6.44,6.44,0,0,1,5.65,53.22Z"/><path class="cls-1" d="M22.69,51.42a5.71,5.71,0,0,1-4.31,1.8,5.71,5.71,0,0,1-4.3-1.8,6.46,6.46,0,0,1,0-8.8,5.7,5.7,0,0,1,4.3-1.79,5.7,5.7,0,0,1,4.31,1.79,6.46,6.46,0,0,1,0,8.8Zm-6.9-1.56a3.61,3.61,0,0,0,5.19,0,4.46,4.46,0,0,0,0-5.68,3.4,3.4,0,0,0-2.6-1.09,3.39,3.39,0,0,0-2.59,1.09,4.46,4.46,0,0,0,0,5.68Z"/><path class="cls-1" d="M29.93,46.52V53H27.52V41h2.41V43.2a4.41,4.41,0,0,1,1.6-1.74,4.43,4.43,0,0,1,5.35.61,5,5,0,0,1,1.19,3.6V53H35.66V46.43c0-2.21-.88-3.32-2.63-3.32a3.05,3.05,0,0,0-2.17.87A3.32,3.32,0,0,0,29.93,46.52Z"/><path class="cls-1" d="M44.62,43v6.11a2,2,0,0,0,.43,1.37,1.5,1.5,0,0,0,1.21.51,2,2,0,0,0,1.48-.8l1,1.79a4,4,0,0,1-2.81,1.2,3.54,3.54,0,0,1-2.63-1.12,4.17,4.17,0,0,1-1.08-3V43H40.76V41h1.45V37.23h2.41V41h3v2Z"/><path class="cls-1" d="M61.68,48.13h-9a2.77,2.77,0,0,0,1.14,2.12,4.28,4.28,0,0,0,5.69-.63l1.37,1.59a6.24,6.24,0,0,1-4.82,2A5.58,5.58,0,0,1,52,51.54,6.12,6.12,0,0,1,50.29,47,6,6,0,0,1,52,42.5a5.61,5.61,0,0,1,4.06-1.67,5.68,5.68,0,0,1,4,1.48,5.24,5.24,0,0,1,1.64,4.08Zm-9-2h6.57a3,3,0,0,0-.91-2.33A3.2,3.2,0,0,0,56.13,43a3.74,3.74,0,0,0-2.38.84A2.82,2.82,0,0,0,52.7,46.14Z"/><path class="cls-1" d="M67.11,46.52V53H64.69V41h2.42V43.2a3.87,3.87,0,0,1,1.56-1.74,4.27,4.27,0,0,1,2.25-.63,3.62,3.62,0,0,1,3.68,2.35,5.08,5.08,0,0,1,4.25-2.35A4.14,4.14,0,0,1,82,42.07a5,5,0,0,1,1.2,3.6V53H80.76V46.43c0-2.21-.87-3.32-2.62-3.32a3.07,3.07,0,0,0-2.15.83,3.2,3.2,0,0,0-1,2.4V53H72.62V46.43A4.34,4.34,0,0,0,72,43.91a2.12,2.12,0,0,0-1.83-.8A3.09,3.09,0,0,0,68,44,3.35,3.35,0,0,0,67.11,46.52Z"/><path class="cls-1" d="M93,40.83A5.28,5.28,0,0,1,97,42.5,6.11,6.11,0,0,1,98.62,47,6.34,6.34,0,0,1,97,51.48a4.89,4.89,0,0,1-7.68-.25v6.2H86.9V41h2.41v2.1A4.26,4.26,0,0,1,93,40.83Zm-3.77,6.22a4,4,0,0,0,1,2.81A3.15,3.15,0,0,0,92.68,51a3.32,3.32,0,0,0,2.47-1.09,3.83,3.83,0,0,0,1.06-2.81,4.14,4.14,0,0,0-1-2.88A3.22,3.22,0,0,0,92.7,43a3.1,3.1,0,0,0-2.44,1.14A4.24,4.24,0,0,0,89.27,47.05Z"/><path class="cls-1" d="M111.33,51.42a6.06,6.06,0,0,1-8.62,0,6.49,6.49,0,0,1,0-8.8,6.08,6.08,0,0,1,8.62,0,6.49,6.49,0,0,1,0,8.8Zm-6.9-1.56A3.38,3.38,0,0,0,107,51a3.42,3.42,0,0,0,2.6-1.1,4.46,4.46,0,0,0,0-5.68,3.41,3.41,0,0,0-2.6-1.09,3.38,3.38,0,0,0-2.59,1.09,4.43,4.43,0,0,0,0,5.68Z"/><path class="cls-1" d="M122.16,43.38a3.14,3.14,0,0,0-2.69,1.22,5.43,5.43,0,0,0-.9,3.28V53h-2.42V41h2.42v2.42a5,5,0,0,1,1.58-1.86,3.66,3.66,0,0,1,2.12-.74l0,2.55Z"/><path class="cls-1" d="M134.25,53h-2.2V51.43a4.63,4.63,0,0,1-3.81,1.79,4.23,4.23,0,0,1-3-1.06,3.63,3.63,0,0,1-1.18-2.84,3,3,0,0,1,1.25-2.66,5.74,5.74,0,0,1,3.38-.88h3.13v-.45c0-1.6-.85-2.4-2.54-2.4A5.8,5.8,0,0,0,126,44.15l-1.08-1.58a7.19,7.19,0,0,1,4.74-1.74A5,5,0,0,1,133,41.9a4.18,4.18,0,0,1,1.28,3.38Zm-2.41-4.48v-1h-2.72c-1.74,0-2.61.58-2.61,1.72a1.56,1.56,0,0,0,.65,1.35,3,3,0,0,0,1.8.46,3.15,3.15,0,0,0,2-.68A2.19,2.19,0,0,0,131.84,48.56Z"/><path class="cls-1" d="M144,43.38a3.14,3.14,0,0,0-2.69,1.22,5.43,5.43,0,0,0-.9,3.28V53H138V41h2.42v2.42A5,5,0,0,1,142,41.57a3.66,3.66,0,0,1,2.12-.74l0,2.55Z"/><path class="cls-1" d="M148.33,57.83a4.06,4.06,0,0,1-2.84-1.2l1.1-2.05a2.24,2.24,0,0,0,1.56.74,1.63,1.63,0,0,0,1.32-.61,2.06,2.06,0,0,0,.5-1.33q0-.32-4.63-12.37h2.59l3.42,8.86L154.78,41h2.58L151.8,55.3a4.28,4.28,0,0,1-1.42,1.85A3.35,3.35,0,0,1,148.33,57.83Z"/><path class="cls-1" d="M167.72,56.5V35.35h1.79V56.5Z"/><path class="cls-1" d="M183.87,40v1h3v2h-3V53h-2.42V43H180V41h1.44v-.93a4.17,4.17,0,0,1,1.09-3,3.52,3.52,0,0,1,2.63-1.12,4,4,0,0,1,2.81,1.2l-1,1.78a2,2,0,0,0-1.49-.79,1.48,1.48,0,0,0-1.2.51A2,2,0,0,0,183.87,40Z"/><path class="cls-1" d="M197.59,47.52V41H200V53h-2.41v-2.2A4.53,4.53,0,0,1,196,52.59a4.14,4.14,0,0,1-2.21.63A4.18,4.18,0,0,1,190.64,52a5,5,0,0,1-1.2-3.6V41h2.42v6.6c0,2.22.87,3.33,2.62,3.33a3,3,0,0,0,2.18-.88A3.3,3.3,0,0,0,197.59,47.52Z"/><path class="cls-1" d="M209.87,43.38a3.16,3.16,0,0,0-2.7,1.22,5.43,5.43,0,0,0-.9,3.28V53h-2.41V41h2.41v2.42a5.1,5.1,0,0,1,1.58-1.86,3.68,3.68,0,0,1,2.12-.74l0,2.55Z"/><path class="cls-1" d="M215.19,46.52V53h-2.42V41h2.42V43.2a4.41,4.41,0,0,1,1.6-1.74,4.41,4.41,0,0,1,5.34.61,5,5,0,0,1,1.2,3.6V53h-2.41V46.43c0-2.21-.88-3.32-2.63-3.32a3.05,3.05,0,0,0-2.17.87A3.32,3.32,0,0,0,215.19,46.52Z"/><path class="cls-1" d="M227.21,38.61a1.59,1.59,0,0,1-.45-1.13,1.57,1.57,0,0,1,.45-1.13,1.44,1.44,0,0,1,2.15,0,1.57,1.57,0,0,1,.45,1.13,1.59,1.59,0,0,1-.45,1.13,1.46,1.46,0,0,1-2.15,0ZM229.47,53h-2.41V41h2.41Z"/><path class="cls-1" d="M236.3,43v6.11a2,2,0,0,0,.43,1.37,1.49,1.49,0,0,0,1.2.51,2,2,0,0,0,1.49-.8l1,1.79a4,4,0,0,1-2.81,1.2A3.52,3.52,0,0,1,235,52.1a4.17,4.17,0,0,1-1.09-3V43h-1.44V41h1.44V37.23h2.42V41h3v2Z"/><path class="cls-1" d="M250.71,47.52V41h2.41V53h-2.41v-2.2a4.53,4.53,0,0,1-1.61,1.75,4.14,4.14,0,0,1-2.21.63A4.18,4.18,0,0,1,243.76,52a5,5,0,0,1-1.2-3.6V41H245v6.6c0,2.22.87,3.33,2.63,3.33a3,3,0,0,0,2.17-.88A3.3,3.3,0,0,0,250.71,47.52Z"/><path class="cls-1" d="M263,43.38a3.14,3.14,0,0,0-2.69,1.22,5.43,5.43,0,0,0-.9,3.28V53H257V41h2.42v2.42A5.1,5.1,0,0,1,261,41.57a3.68,3.68,0,0,1,2.12-.74l0,2.55Z"/><path class="cls-1" d="M276.56,48.13h-9a2.8,2.8,0,0,0,1.14,2.12,4.29,4.29,0,0,0,5.69-.63l1.38,1.59a6.26,6.26,0,0,1-4.82,2,5.62,5.62,0,0,1-4.11-1.68A6.12,6.12,0,0,1,265.16,47a6,6,0,0,1,1.72-4.51,5.61,5.61,0,0,1,4.06-1.67,5.71,5.71,0,0,1,4,1.48,5.24,5.24,0,0,1,1.64,4.08Zm-9-2h6.57a3,3,0,0,0-.9-2.33A3.24,3.24,0,0,0,271,43a3.72,3.72,0,0,0-2.38.84A2.8,2.8,0,0,0,267.57,46.14Z"/><path class="cls-1" d="M287.67,56.5V35.35h1.79V56.5Z"/><path class="cls-1" d="M303.83,46.52V53h-2.42V41h2.42V43.2a3.87,3.87,0,0,1,1.56-1.74,4.25,4.25,0,0,1,2.25-.63,3.62,3.62,0,0,1,3.68,2.35,5.08,5.08,0,0,1,4.24-2.35,4.15,4.15,0,0,1,3.14,1.24,5,5,0,0,1,1.19,3.6V53h-2.41V46.43c0-2.21-.87-3.32-2.63-3.32a3.07,3.07,0,0,0-2.14.83,3.2,3.2,0,0,0-1,2.4V53h-2.41V46.43a4.42,4.42,0,0,0-.58-2.52,2.12,2.12,0,0,0-1.83-.8,3.08,3.08,0,0,0-2.18.87A3.31,3.31,0,0,0,303.83,46.52Z"/><path class="cls-1" d="M332.9,53h-2.19V51.43a4.64,4.64,0,0,1-3.82,1.79,4.23,4.23,0,0,1-3-1.06,3.66,3.66,0,0,1-1.17-2.84A3,3,0,0,1,324,46.66a5.74,5.74,0,0,1,3.38-.88h3.12v-.45c0-1.6-.84-2.4-2.54-2.4a5.82,5.82,0,0,0-3.32,1.22l-1.07-1.58a7.19,7.19,0,0,1,4.74-1.74,4.92,4.92,0,0,1,3.3,1.07,4.15,4.15,0,0,1,1.28,3.38Zm-2.41-4.48v-1h-2.71c-1.74,0-2.61.58-2.61,1.72a1.56,1.56,0,0,0,.65,1.35,3,3,0,0,0,1.8.46,3.19,3.19,0,0,0,2-.68A2.21,2.21,0,0,0,330.49,48.56Z"/><path class="cls-1" d="M339,53h-2.41V36.26H339v9.86L343.7,41h3.1l-4.35,4.77L347.12,53h-2.93l-3.4-5.27L339,49.62Z"/><path class="cls-1" d="M360.17,48.13h-9a2.8,2.8,0,0,0,1.14,2.12,4.28,4.28,0,0,0,5.69-.63l1.38,1.59a6.28,6.28,0,0,1-4.83,2,5.6,5.6,0,0,1-4.1-1.68A6.12,6.12,0,0,1,348.78,47a6,6,0,0,1,1.72-4.51,5.61,5.61,0,0,1,4.06-1.67,5.71,5.71,0,0,1,4,1.48,5.23,5.23,0,0,1,1.63,4.08Zm-9-2h6.57a3,3,0,0,0-.9-2.33,3.24,3.24,0,0,0-2.23-.81,3.7,3.7,0,0,0-2.38.84A2.8,2.8,0,0,0,351.19,46.14Z"/><path class="cls-1" d="M369.2,43.38a3.14,3.14,0,0,0-2.69,1.22,5.36,5.36,0,0,0-.91,3.28V53h-2.41V41h2.41v2.42a5.13,5.13,0,0,1,1.59-1.86,3.64,3.64,0,0,1,2.12-.74l0,2.55Z"/><path class="cls-1" d="M380.27,49.44a3.46,3.46,0,0,1-1.18,2.75,4.48,4.48,0,0,1-3,1,7.72,7.72,0,0,1-2.6-.48,7.58,7.58,0,0,1-2.38-1.33l1.17-2A6.28,6.28,0,0,0,376.11,51a2,2,0,0,0,1.29-.4,1.25,1.25,0,0,0,.48-1q0-.9-2.28-1.62l-.26-.09c-2.39-.68-3.58-1.82-3.58-3.4A3.27,3.27,0,0,1,373,41.83a4.94,4.94,0,0,1,3.22-1A6.45,6.45,0,0,1,380,42.05l-.91,1.87a5.25,5.25,0,0,0-3-1,2.64,2.64,0,0,0-1.4.33,1.08,1.08,0,0,0-.54,1,.88.88,0,0,0,.56.86,4.93,4.93,0,0,0,1.09.39c.46.12.88.24,1.23.36a9.52,9.52,0,0,1,1,.41,6.69,6.69,0,0,1,1.09.63A2.89,2.89,0,0,1,380.27,49.44Z"/></svg>